<mxfile host="app.diagrams.net" modified="2023-10-23T12:30:47.592Z" agent="Mozilla/5.0 (X11; Ubuntu; Linux x86_64; rv:109.0) Gecko/20100101 Firefox/119.0" version="22.0.6" etag="1jXRij2AxWzITJM9pTeN" type="github">
  <diagram name="Page-1" id="coTqavK7Ju2VWsgx39j7">
    <mxGraphModel>
      <root>
        <mxCell id="0" />
        <mxCell id="1" parent="0" />
      </root>
    </mxGraphModel>
  </diagram>
</mxfile>
